<svg fill="#3580ff" xmlns="http://www.w3.org/2000/svg"  viewBox="0 0 50 50" width="50px" height="50px"><path d="M 22.136719 12.044922 C 21.702712 12.082898 21.270825 12.200927 20.861328 12.404297 L 8.9316406 18.324219 C 7.1864263 19.190877 6.4752182 21.347533 7.3632812 23.082031 C 8.2242328 24.762275 10.288756 25.466461 11.996094 24.662109 L 21.201172 20.328125 L 23.414062 23.917969 L 7.5820312 33.558594 C 3.73415 32.165173 1.6777344 30.263672 1.6777344 30.263672 A 1.0001 1.0001 0 0 0 0.94726562 29.992188 A 1.0001 1.0001 0 0 0 0.32226562 31.736328 C 0.32226562 31.736328 2.7873731 33.969931 7.2421875 35.527344 A 1.0005423 1.0005423 0 0 0 7.5429688 35.630859 C 9.865379 36.410464 12.696062 37 16 37 C 20.921897 37 24.387992 35.954921 27.369141 34.947266 C 30.35029 33.93961 32.813535 33 36 33 C 42.372931 33 48.458984 36.841797 48.458984 36.841797 A 1.00066 1.00066 0 1 0 49.541016 35.158203 C 49.541016 35.158203 43.161069 31 36 31 C 35.615979 31 35.245178 31.018012 34.878906 31.041016 C 34.950939 30.702925 35 30.356191 35 29.998047 C 35 29.014217 34.703322 28.099464 34.220703 27.335938 A 1.0001 1.0001 0 0 0 34.216797 27.332031 L 25.494141 13.6875 C 25.001296 12.91756 24.251923 12.394141 23.421875 12.164062 C 23.006851 12.049024 22.570725 12.006946 22.136719 12.044922 z M 22.320312 14.03125 C 22.89894 13.977424 23.47536 14.245035 23.808594 14.765625 L 32.529297 28.404297 C 32.826678 28.874769 33 29.413877 33 29.998047 C 33 30.475899 32.88613 30.917682 32.691406 31.314453 C 30.585219 31.70113 28.694628 32.388171 26.728516 33.052734 C 23.792665 34.045079 20.643103 35 16 35 C 13.819494 35 11.877066 34.728993 10.169922 34.324219 L 25.3125 25.103516 A 1.0001 1.0001 0 0 0 25.642578 23.724609 L 22.435547 18.517578 A 1.0001 1.0001 0 0 0 21.158203 18.136719 L 11.144531 22.851562 C 10.393869 23.205212 9.5235798 22.909682 9.1445312 22.169922 C 8.7528376 21.404895 9.0525252 20.497045 9.8222656 20.115234 L 21.75 14.195312 C 21.934503 14.103682 22.127437 14.049192 22.320312 14.03125 z M 39.5 18 C 36.473126 18 34 20.473789 34 23.498047 C 34 26.526219 36.473394 29 39.5 29 C 42.524258 29 45 26.527023 45 23.498047 C 45 20.472984 42.524526 18 39.5 18 z M 39.5 20 C 41.443474 20 43 21.55511 43 23.498047 C 43 25.447071 41.443742 27 39.5 27 C 37.552606 27 36 25.447875 36 23.498047 C 36 21.554305 37.552874 20 39.5 20 z"/></svg>